<svg xmlns="http://www.w3.org/2000/svg" width="96" height="96" viewBox="0 0 96 96">
  <defs>
    <linearGradient id="bg" x1="0" y1="0" x2="0" y2="1">
      <stop offset="0%" stop-color="#000028"/>
      <stop offset="100%" stop-color="#000014"/>
    </linearGradient>
    <linearGradient id="title" x1="0" y1="0" x2="1" y2="1">
      <stop offset="0%" stop-color="#ffc850"/>
      <stop offset="100%" stop-color="#ff6432"/>
    </linearGradient>
    <linearGradient id="paddle" x1="0" y1="0" x2="0" y2="1">
      <stop offset="0%" stop-color="#50b4ff"/>
      <stop offset="100%" stop-color="#2864c8"/>
    </linearGradient>
  </defs>
  <rect width="96" height="96" rx="14.399999999999999" fill="url(#bg)"/>
  <text x="48" y="15.36" text-anchor="middle" font-family="Arial,sans-serif" font-weight="bold" font-size="9.600000000000001" fill="url(#title)">BB</text>
  <rect x="11.52" y="21.12" width="17.28" height="6.720000000000001" rx="0.96" fill="#ff3c50" opacity="0.95"/><rect x="30.720000000000002" y="21.12" width="17.28" height="6.720000000000001" rx="0.96" fill="#ff3c50" opacity="0.95"/><rect x="49.92" y="21.12" width="17.28" height="6.720000000000001" rx="0.96" fill="#ff3c50" opacity="0.95"/><rect x="69.12" y="21.12" width="17.28" height="6.720000000000001" rx="0.96" fill="#ff3c50" opacity="0.95"/><rect x="11.52" y="29.76" width="17.28" height="6.720000000000001" rx="0.96" fill="#ff8c32" opacity="0.95"/><rect x="30.720000000000002" y="29.76" width="17.28" height="6.720000000000001" rx="0.96" fill="#ff8c32" opacity="0.95"/><rect x="49.92" y="29.76" width="17.28" height="6.720000000000001" rx="0.96" fill="#ff8c32" opacity="0.95"/><rect x="69.12" y="29.76" width="17.28" height="6.720000000000001" rx="0.96" fill="#ff8c32" opacity="0.95"/><rect x="11.52" y="38.400000000000006" width="17.28" height="6.720000000000001" rx="0.96" fill="#ffdc32" opacity="0.95"/><rect x="30.720000000000002" y="38.400000000000006" width="17.28" height="6.720000000000001" rx="0.96" fill="#ffdc32" opacity="0.95"/><rect x="49.92" y="38.400000000000006" width="17.28" height="6.720000000000001" rx="0.96" fill="#ffdc32" opacity="0.95"/><rect x="69.12" y="38.400000000000006" width="17.28" height="6.720000000000001" rx="0.96" fill="#ffdc32" opacity="0.95"/><rect x="11.52" y="47.040000000000006" width="17.28" height="6.720000000000001" rx="0.96" fill="#32dc64" opacity="0.95"/><rect x="30.720000000000002" y="47.040000000000006" width="17.28" height="6.720000000000001" rx="0.96" fill="#32dc64" opacity="0.95"/><rect x="49.92" y="47.040000000000006" width="17.28" height="6.720000000000001" rx="0.96" fill="#32dc64" opacity="0.95"/><rect x="69.12" y="47.040000000000006" width="17.28" height="6.720000000000001" rx="0.96" fill="#32dc64" opacity="0.95"/><rect x="11.52" y="55.68000000000001" width="17.28" height="6.720000000000001" rx="0.96" fill="#32b4ff" opacity="0.95"/><rect x="30.720000000000002" y="55.68000000000001" width="17.28" height="6.720000000000001" rx="0.96" fill="#32b4ff" opacity="0.95"/><rect x="49.92" y="55.68000000000001" width="17.28" height="6.720000000000001" rx="0.96" fill="#32b4ff" opacity="0.95"/><rect x="69.12" y="55.68000000000001" width="17.28" height="6.720000000000001" rx="0.96" fill="#32b4ff" opacity="0.95"/>
  <circle cx="52.800000000000004" cy="69.12" r="3.84" fill="white"/>
  <circle cx="51.648" cy="67.968" r="1.152" fill="rgba(255,255,255,0.6)"/>
  <rect x="31.200000000000003" y="78.72" width="33.599999999999994" height="3.84" rx="1.92" fill="url(#paddle)"/>
</svg>