<svg xmlns="http://www.w3.org/2000/svg" width="152" height="152" viewBox="0 0 152 152">
  <defs>
    <linearGradient id="bg" x1="0" y1="0" x2="0" y2="1">
      <stop offset="0%" stop-color="#000028"/>
      <stop offset="100%" stop-color="#000014"/>
    </linearGradient>
    <linearGradient id="title" x1="0" y1="0" x2="1" y2="1">
      <stop offset="0%" stop-color="#ffc850"/>
      <stop offset="100%" stop-color="#ff6432"/>
    </linearGradient>
    <linearGradient id="paddle" x1="0" y1="0" x2="0" y2="1">
      <stop offset="0%" stop-color="#50b4ff"/>
      <stop offset="100%" stop-color="#2864c8"/>
    </linearGradient>
  </defs>
  <rect width="152" height="152" rx="22.8" fill="url(#bg)"/>
  <text x="76" y="24.32" text-anchor="middle" font-family="Arial,sans-serif" font-weight="bold" font-size="15.200000000000001" fill="url(#title)">BB</text>
  <rect x="18.24" y="33.44" width="27.36" height="10.64" rx="1.52" fill="#ff3c50" opacity="0.95"/><rect x="48.64" y="33.44" width="27.36" height="10.64" rx="1.52" fill="#ff3c50" opacity="0.95"/><rect x="79.03999999999999" y="33.44" width="27.36" height="10.64" rx="1.52" fill="#ff3c50" opacity="0.95"/><rect x="109.43999999999998" y="33.44" width="27.36" height="10.64" rx="1.52" fill="#ff3c50" opacity="0.95"/><rect x="18.24" y="47.12" width="27.36" height="10.64" rx="1.52" fill="#ff8c32" opacity="0.95"/><rect x="48.64" y="47.12" width="27.36" height="10.64" rx="1.52" fill="#ff8c32" opacity="0.95"/><rect x="79.03999999999999" y="47.12" width="27.36" height="10.64" rx="1.52" fill="#ff8c32" opacity="0.95"/><rect x="109.43999999999998" y="47.12" width="27.36" height="10.64" rx="1.52" fill="#ff8c32" opacity="0.95"/><rect x="18.24" y="60.8" width="27.36" height="10.64" rx="1.52" fill="#ffdc32" opacity="0.95"/><rect x="48.64" y="60.8" width="27.36" height="10.64" rx="1.52" fill="#ffdc32" opacity="0.95"/><rect x="79.03999999999999" y="60.8" width="27.36" height="10.64" rx="1.52" fill="#ffdc32" opacity="0.95"/><rect x="109.43999999999998" y="60.8" width="27.36" height="10.64" rx="1.52" fill="#ffdc32" opacity="0.95"/><rect x="18.24" y="74.47999999999999" width="27.36" height="10.64" rx="1.52" fill="#32dc64" opacity="0.95"/><rect x="48.64" y="74.47999999999999" width="27.36" height="10.64" rx="1.52" fill="#32dc64" opacity="0.95"/><rect x="79.03999999999999" y="74.47999999999999" width="27.36" height="10.64" rx="1.52" fill="#32dc64" opacity="0.95"/><rect x="109.43999999999998" y="74.47999999999999" width="27.36" height="10.64" rx="1.52" fill="#32dc64" opacity="0.95"/><rect x="18.24" y="88.16" width="27.36" height="10.64" rx="1.52" fill="#32b4ff" opacity="0.95"/><rect x="48.64" y="88.16" width="27.36" height="10.64" rx="1.52" fill="#32b4ff" opacity="0.95"/><rect x="79.03999999999999" y="88.16" width="27.36" height="10.64" rx="1.52" fill="#32b4ff" opacity="0.95"/><rect x="109.43999999999998" y="88.16" width="27.36" height="10.64" rx="1.52" fill="#32b4ff" opacity="0.95"/>
  <circle cx="83.60000000000001" cy="109.44" r="6.08" fill="white"/>
  <circle cx="81.77600000000001" cy="107.616" r="1.8239999999999998" fill="rgba(255,255,255,0.6)"/>
  <rect x="49.400000000000006" y="124.63999999999999" width="53.199999999999996" height="6.08" rx="3.04" fill="url(#paddle)"/>
</svg>