<svg xmlns="http://www.w3.org/2000/svg" width="512" height="512" viewBox="0 0 512 512">
  <defs>
    <linearGradient id="bg" x1="0" y1="0" x2="0" y2="1">
      <stop offset="0%" stop-color="#000028"/>
      <stop offset="100%" stop-color="#000014"/>
    </linearGradient>
    <linearGradient id="title" x1="0" y1="0" x2="1" y2="1">
      <stop offset="0%" stop-color="#ffc850"/>
      <stop offset="100%" stop-color="#ff6432"/>
    </linearGradient>
    <linearGradient id="paddle" x1="0" y1="0" x2="0" y2="1">
      <stop offset="0%" stop-color="#50b4ff"/>
      <stop offset="100%" stop-color="#2864c8"/>
    </linearGradient>
  </defs>
  <rect width="512" height="512" rx="76.8" fill="url(#bg)"/>
  <text x="256" y="81.92" text-anchor="middle" font-family="Arial,sans-serif" font-weight="bold" font-size="51.2" fill="url(#title)">BB</text>
  <rect x="61.44" y="112.64" width="92.16" height="35.84" rx="5.12" fill="#ff3c50" opacity="0.95"/><rect x="163.83999999999997" y="112.64" width="92.16" height="35.84" rx="5.12" fill="#ff3c50" opacity="0.95"/><rect x="266.24" y="112.64" width="92.16" height="35.84" rx="5.12" fill="#ff3c50" opacity="0.95"/><rect x="368.64" y="112.64" width="92.16" height="35.84" rx="5.12" fill="#ff3c50" opacity="0.95"/><rect x="61.44" y="158.72" width="92.16" height="35.84" rx="5.12" fill="#ff8c32" opacity="0.95"/><rect x="163.83999999999997" y="158.72" width="92.16" height="35.84" rx="5.12" fill="#ff8c32" opacity="0.95"/><rect x="266.24" y="158.72" width="92.16" height="35.84" rx="5.12" fill="#ff8c32" opacity="0.95"/><rect x="368.64" y="158.72" width="92.16" height="35.84" rx="5.12" fill="#ff8c32" opacity="0.95"/><rect x="61.44" y="204.8" width="92.16" height="35.84" rx="5.12" fill="#ffdc32" opacity="0.95"/><rect x="163.83999999999997" y="204.8" width="92.16" height="35.84" rx="5.12" fill="#ffdc32" opacity="0.95"/><rect x="266.24" y="204.8" width="92.16" height="35.84" rx="5.12" fill="#ffdc32" opacity="0.95"/><rect x="368.64" y="204.8" width="92.16" height="35.84" rx="5.12" fill="#ffdc32" opacity="0.95"/><rect x="61.44" y="250.88" width="92.16" height="35.84" rx="5.12" fill="#32dc64" opacity="0.95"/><rect x="163.83999999999997" y="250.88" width="92.16" height="35.84" rx="5.12" fill="#32dc64" opacity="0.95"/><rect x="266.24" y="250.88" width="92.16" height="35.84" rx="5.12" fill="#32dc64" opacity="0.95"/><rect x="368.64" y="250.88" width="92.16" height="35.84" rx="5.12" fill="#32dc64" opacity="0.95"/><rect x="61.44" y="296.96000000000004" width="92.16" height="35.84" rx="5.12" fill="#32b4ff" opacity="0.95"/><rect x="163.83999999999997" y="296.96000000000004" width="92.16" height="35.84" rx="5.12" fill="#32b4ff" opacity="0.95"/><rect x="266.24" y="296.96000000000004" width="92.16" height="35.84" rx="5.12" fill="#32b4ff" opacity="0.95"/><rect x="368.64" y="296.96000000000004" width="92.16" height="35.84" rx="5.12" fill="#32b4ff" opacity="0.95"/>
  <circle cx="281.6" cy="368.64" r="20.48" fill="white"/>
  <circle cx="275.456" cy="362.496" r="6.144" fill="rgba(255,255,255,0.6)"/>
  <rect x="166.4" y="419.84" width="179.2" height="20.48" rx="10.24" fill="url(#paddle)"/>
</svg>