<svg xmlns="http://www.w3.org/2000/svg" width="72" height="72" viewBox="0 0 72 72">
  <defs>
    <linearGradient id="bg" x1="0" y1="0" x2="0" y2="1">
      <stop offset="0%" stop-color="#000028"/>
      <stop offset="100%" stop-color="#000014"/>
    </linearGradient>
    <linearGradient id="title" x1="0" y1="0" x2="1" y2="1">
      <stop offset="0%" stop-color="#ffc850"/>
      <stop offset="100%" stop-color="#ff6432"/>
    </linearGradient>
    <linearGradient id="paddle" x1="0" y1="0" x2="0" y2="1">
      <stop offset="0%" stop-color="#50b4ff"/>
      <stop offset="100%" stop-color="#2864c8"/>
    </linearGradient>
  </defs>
  <rect width="72" height="72" rx="10.799999999999999" fill="url(#bg)"/>
  <text x="36" y="11.52" text-anchor="middle" font-family="Arial,sans-serif" font-weight="bold" font-size="7.2" fill="url(#title)">BB</text>
  <rect x="8.64" y="15.84" width="12.959999999999999" height="5.040000000000001" rx="0.72" fill="#ff3c50" opacity="0.95"/><rect x="23.04" y="15.84" width="12.959999999999999" height="5.040000000000001" rx="0.72" fill="#ff3c50" opacity="0.95"/><rect x="37.44" y="15.84" width="12.959999999999999" height="5.040000000000001" rx="0.72" fill="#ff3c50" opacity="0.95"/><rect x="51.839999999999996" y="15.84" width="12.959999999999999" height="5.040000000000001" rx="0.72" fill="#ff3c50" opacity="0.95"/><rect x="8.64" y="22.32" width="12.959999999999999" height="5.040000000000001" rx="0.72" fill="#ff8c32" opacity="0.95"/><rect x="23.04" y="22.32" width="12.959999999999999" height="5.040000000000001" rx="0.72" fill="#ff8c32" opacity="0.95"/><rect x="37.44" y="22.32" width="12.959999999999999" height="5.040000000000001" rx="0.72" fill="#ff8c32" opacity="0.95"/><rect x="51.839999999999996" y="22.32" width="12.959999999999999" height="5.040000000000001" rx="0.72" fill="#ff8c32" opacity="0.95"/><rect x="8.64" y="28.8" width="12.959999999999999" height="5.040000000000001" rx="0.72" fill="#ffdc32" opacity="0.95"/><rect x="23.04" y="28.8" width="12.959999999999999" height="5.040000000000001" rx="0.72" fill="#ffdc32" opacity="0.95"/><rect x="37.44" y="28.8" width="12.959999999999999" height="5.040000000000001" rx="0.72" fill="#ffdc32" opacity="0.95"/><rect x="51.839999999999996" y="28.8" width="12.959999999999999" height="5.040000000000001" rx="0.72" fill="#ffdc32" opacity="0.95"/><rect x="8.64" y="35.28" width="12.959999999999999" height="5.040000000000001" rx="0.72" fill="#32dc64" opacity="0.95"/><rect x="23.04" y="35.28" width="12.959999999999999" height="5.040000000000001" rx="0.72" fill="#32dc64" opacity="0.95"/><rect x="37.44" y="35.28" width="12.959999999999999" height="5.040000000000001" rx="0.72" fill="#32dc64" opacity="0.95"/><rect x="51.839999999999996" y="35.28" width="12.959999999999999" height="5.040000000000001" rx="0.72" fill="#32dc64" opacity="0.95"/><rect x="8.64" y="41.760000000000005" width="12.959999999999999" height="5.040000000000001" rx="0.72" fill="#32b4ff" opacity="0.95"/><rect x="23.04" y="41.760000000000005" width="12.959999999999999" height="5.040000000000001" rx="0.72" fill="#32b4ff" opacity="0.95"/><rect x="37.44" y="41.760000000000005" width="12.959999999999999" height="5.040000000000001" rx="0.72" fill="#32b4ff" opacity="0.95"/><rect x="51.839999999999996" y="41.760000000000005" width="12.959999999999999" height="5.040000000000001" rx="0.72" fill="#32b4ff" opacity="0.95"/>
  <circle cx="39.6" cy="51.839999999999996" r="2.88" fill="white"/>
  <circle cx="38.736000000000004" cy="50.976" r="0.864" fill="rgba(255,255,255,0.6)"/>
  <rect x="23.4" y="59.04" width="25.2" height="2.88" rx="1.44" fill="url(#paddle)"/>
</svg>