<svg xmlns="http://www.w3.org/2000/svg" width="144" height="144" viewBox="0 0 144 144">
  <defs>
    <linearGradient id="bg" x1="0" y1="0" x2="0" y2="1">
      <stop offset="0%" stop-color="#000028"/>
      <stop offset="100%" stop-color="#000014"/>
    </linearGradient>
    <linearGradient id="title" x1="0" y1="0" x2="1" y2="1">
      <stop offset="0%" stop-color="#ffc850"/>
      <stop offset="100%" stop-color="#ff6432"/>
    </linearGradient>
    <linearGradient id="paddle" x1="0" y1="0" x2="0" y2="1">
      <stop offset="0%" stop-color="#50b4ff"/>
      <stop offset="100%" stop-color="#2864c8"/>
    </linearGradient>
  </defs>
  <rect width="144" height="144" rx="21.599999999999998" fill="url(#bg)"/>
  <text x="72" y="23.04" text-anchor="middle" font-family="Arial,sans-serif" font-weight="bold" font-size="14.4" fill="url(#title)">BB</text>
  <rect x="17.28" y="31.68" width="25.919999999999998" height="10.080000000000002" rx="1.44" fill="#ff3c50" opacity="0.95"/><rect x="46.08" y="31.68" width="25.919999999999998" height="10.080000000000002" rx="1.44" fill="#ff3c50" opacity="0.95"/><rect x="74.88" y="31.68" width="25.919999999999998" height="10.080000000000002" rx="1.44" fill="#ff3c50" opacity="0.95"/><rect x="103.67999999999999" y="31.68" width="25.919999999999998" height="10.080000000000002" rx="1.44" fill="#ff3c50" opacity="0.95"/><rect x="17.28" y="44.64" width="25.919999999999998" height="10.080000000000002" rx="1.44" fill="#ff8c32" opacity="0.95"/><rect x="46.08" y="44.64" width="25.919999999999998" height="10.080000000000002" rx="1.44" fill="#ff8c32" opacity="0.95"/><rect x="74.88" y="44.64" width="25.919999999999998" height="10.080000000000002" rx="1.44" fill="#ff8c32" opacity="0.95"/><rect x="103.67999999999999" y="44.64" width="25.919999999999998" height="10.080000000000002" rx="1.44" fill="#ff8c32" opacity="0.95"/><rect x="17.28" y="57.6" width="25.919999999999998" height="10.080000000000002" rx="1.44" fill="#ffdc32" opacity="0.95"/><rect x="46.08" y="57.6" width="25.919999999999998" height="10.080000000000002" rx="1.44" fill="#ffdc32" opacity="0.95"/><rect x="74.88" y="57.6" width="25.919999999999998" height="10.080000000000002" rx="1.44" fill="#ffdc32" opacity="0.95"/><rect x="103.67999999999999" y="57.6" width="25.919999999999998" height="10.080000000000002" rx="1.44" fill="#ffdc32" opacity="0.95"/><rect x="17.28" y="70.56" width="25.919999999999998" height="10.080000000000002" rx="1.44" fill="#32dc64" opacity="0.95"/><rect x="46.08" y="70.56" width="25.919999999999998" height="10.080000000000002" rx="1.44" fill="#32dc64" opacity="0.95"/><rect x="74.88" y="70.56" width="25.919999999999998" height="10.080000000000002" rx="1.44" fill="#32dc64" opacity="0.95"/><rect x="103.67999999999999" y="70.56" width="25.919999999999998" height="10.080000000000002" rx="1.44" fill="#32dc64" opacity="0.95"/><rect x="17.28" y="83.52000000000001" width="25.919999999999998" height="10.080000000000002" rx="1.44" fill="#32b4ff" opacity="0.95"/><rect x="46.08" y="83.52000000000001" width="25.919999999999998" height="10.080000000000002" rx="1.44" fill="#32b4ff" opacity="0.95"/><rect x="74.88" y="83.52000000000001" width="25.919999999999998" height="10.080000000000002" rx="1.44" fill="#32b4ff" opacity="0.95"/><rect x="103.67999999999999" y="83.52000000000001" width="25.919999999999998" height="10.080000000000002" rx="1.44" fill="#32b4ff" opacity="0.95"/>
  <circle cx="79.2" cy="103.67999999999999" r="5.76" fill="white"/>
  <circle cx="77.47200000000001" cy="101.952" r="1.728" fill="rgba(255,255,255,0.6)"/>
  <rect x="46.8" y="118.08" width="50.4" height="5.76" rx="2.88" fill="url(#paddle)"/>
</svg>